<svg viewBox="0 0 512 512"  xmlns="http://www.w3.org/2000/svg" width="24" height="24" ><path d="m440.88 129.37-152.72-88.75a64.14 64.14 0 0 0 -64.33 0l-152.71 88.75a4 4 0 0 0 0 6.9l182.88 107.58a4 4 0 0 0 4.06 0l182.84-107.58a4 4 0 0 0 -.02-6.9zm-184.88 22.63c-13.25 0-24-7.16-24-16s10.75-16 24-16 24 7.16 24 16-10.75 16-24 16z"/><path d="m238 270.81-184-107.33a4 4 0 0 0 -6 3.46v173.92a48 48 0 0 0 23.84 41.39l162.16 97.23a4 4 0 0 0 6-3.46v-201.75a4 4 0 0 0 -2-3.46zm-142 97.19c-8.84 0-16-10.75-16-24s7.16-24 16-24 16 10.75 16 24-7.16 24-16 24zm96-32c-8.84 0-16-10.75-16-24s7.16-24 16-24 16 10.75 16 24-7.16 24-16 24z"/><path d="m458 163.51-184 108.05a4 4 0 0 0 -2 3.45v200.99a4 4 0 0 0 6 3.46l162.15-97.23a48 48 0 0 0 23.85-41.37v-173.86a4 4 0 0 0 -6-3.49zm-138 260.49c-8.84 0-16-10.75-16-24s7.16-24 16-24 16 10.75 16 24-7.16 24-16 24zm0-88c-8.84 0-16-10.75-16-24s7.16-24 16-24 16 10.75 16 24-7.16 24-16 24zm96 32c-8.84 0-16-10.75-16-24s7.16-24 16-24 16 10.75 16 24-7.16 24-16 24zm0-88c-8.84 0-16-10.75-16-24s7.16-24 16-24 16 10.75 16 24-7.16 24-16 24z"/></svg>